<mxfile host="app.diagrams.net" modified="2023-05-23T07:16:32.911Z" agent="Mozilla/5.0 (Windows NT 10.0; Win64; x64) AppleWebKit/537.36 (KHTML, like Gecko) Chrome/113.0.0.0 Safari/537.36" version="21.3.2" etag="Q9mDbiiLkO9PQKRwVt2Z" type="github">
  <diagram name="Pagina-1" id="Qnb35X_hfFmvDTuYBCRj">
    <mxGraphModel>
      <root>
        <mxCell id="0" />
        <mxCell id="1" parent="0" />
      </root>
    </mxGraphModel>
  </diagram>
</mxfile>
